/* XPM */
const static char * checkmark_xpm[] = {
"16 16 4 1",
" 	c None",
".	c #76B876",
"+	c #008100",
"@	c #0D290D",
"                ",
"                ",
"                ",
"           ..   ",
"          .+.   ",
"         .+++   ",
"    .   .+++@   ",
"   .+. .+++@    ",
"   +++.+++@     ",
"   @+++++@      ",
"    @+++@       ",
"     @+@        ",
"      @         ",
"                ",
"                ",
"                "};
