/* XPM */
const static char * checked_xpm[] = {
"16 16 5 1",
" 	c None",
".	c #808080",
"+	c #76B876",
"@	c #008100",
"#	c #0D290D",
"                ",
"                ",
"   ..........   ",
"  .        ++.  ",
"  .       +@+.  ",
"  .      +@@@.  ",
"  . +   +@@@#.  ",
"  .+@+ +@@@# .  ",
"  .@@@+@@@#  .  ",
"  .#@@@@@#   .  ",
"  . #@@@#    .  ",
"  .  #@#     .  ",
"  .   #      .  ",
"   ..........   ",
"                ",
"                "};
