/* XPM */
const static char * checked_eye_xpm[] = {
"16 16 30 1",
" 	c None",
".	c #808080",
"+	c #302929",
"@	c #322C2C",
"#	c #2A2323",
"$	c #383232",
"%	c #706E6E",
"&	c #2A5BA4",
"*	c #3762A2",
"=	c #2F2929",
"-	c #342E2E",
";	c #8D8989",
">	c #CECCCC",
",	c #486FA7",
"'	c #D1DFDF",
")	c #000000",
"!	c #456FAF",
"~	c #FFFFFF",
"{	c #CECDCD",
"]	c #A3A0A0",
"^	c #CDCBCB",
"/	c #688CBF",
"(	c #5F84BA",
"_	c #C2C1C3",
":	c #858282",
"<	c #2D2626",
"[	c #486FAC",
"}	c #305FA6",
"|	c #312A2A",
"1	c #2B2424",
"                ",
"                ",
"   ..........   ",
"  .          .  ",
"  .          .  ",
"  .   +@##   .  ",
"  . $#%&&*=- .  ",
"  .#;>,')!~{#.  ",
"  .#]^/))(_:#.  ",
"  . <#[}&&## .  ",
"  .   |1<#   .  ",
"  .          .  ",
"  .          .  ",
"   ..........   ",
"                ",
"                "};
