/* XPM */
const static char * cursor_xpm[] = {
"16 16 46 1",
" 	c None",
".	c #A0B8D0",
"+	c #C4D8EE",
"@	c #F0F0F0",
"#	c #C6DAF1",
"$	c #FFFFFF",
"%	c #F0F8F0",
"&	c #A0B0D0",
"*	c #C4D7F0",
"=	c #90A8C0",
"-	c #BBD0E8",
";	c #A0B0C0",
">	c #E0E8F0",
",	c #8090B0",
"'	c #BCD1EA",
")	c #D0D8E0",
"!	c #7080A0",
"~	c #B0C5E0",
"{	c #90A0B0",
"]	c #FFF8FF",
"^	c #F0F8FF",
"/	c #607090",
"(	c #B3C8E1",
"_	c #8098B0",
":	c #405060",
"<	c #405070",
"[	c #506070",
"}	c #607080",
"|	c #708090",
"1	c #A9BED8",
"2	c #7088A0",
"3	c #D0D0E0",
"4	c #607890",
"5	c #C0D0E0",
"6	c #C0C8D0",
"7	c #506880",
"8	c #8CA6C5",
"9	c #8BA4C1",
"0	c #D0D8F0",
"a	c #506080",
"b	c #A3BBDE",
"c	c #C0C8E0",
"d	c #A0A8C0",
"e	c #405870",
"f	c #7F95B9",
"g	c #7E9BC0",
"                ",
"   ..+          ",
"   .@.#         ",
"   .$%&*        ",
"   &$$@=-       ",
"   ;$$$>,'      ",
"   =$$$$)!~     ",
"   {$$]^^)/(    ",
"   _]^^@/:<[    ",
"   ,^)}>|1      ",
"   23<456}      ",
"   !78940ab     ",
"   |   /cde     ",
"       f7&<     ",
"        e<g     ",
"                "};
