/* XPM */
const static char * DEM_xpm[] = {
"16 16 7 1",
" 	c None",
".	c #22547A",
"+	c #CFDDF3",
"@	c #99B6E4",
"#	c #7BA0DC",
"$	c #CAD6E1",
"%	c #749ADA",
"                ",
"  ...........   ",
" .++.++.@@.##.  ",
" .++.++.@@.##.$ ",
" .............$ ",
" .@@.%%.++.@@.$ ",
" .@@.%%.++.@@.$ ",
" .............$ ",
" .%%.@@.%%.++.$ ",
" .%%.@@.%%.++.$ ",
" .............$ ",
" .%%.@@.++.##.$ ",
" .%%.@@.++.##.$ ",
"  ...........$  ",
"   $$$$$$$$$$   ",
"                "};
