/* XPM */
const static char * ellipse_xpm[] = {
"16 16 4 1",
" 	c None",
".	c #22547A",
"+	c #7BA0DC",
"@	c #DFE9F8",
"                ",
"                ",
"      ....      ",
"     .++++.     ",
"    .+@@@@+.    ",
"   .+@@@@@@+.   ",
"   .+@@@@@@+.   ",
"   .+@@@@@@+.   ",
"   .+@@@@@@+.   ",
"   .+@@@@@@+.   ",
"   .+@@@@@@+.   ",
"    .+@@@@+.    ",
"     .++++.     ",
"      ....      ",
"                ",
"                "};
