/* XPM */
const static char * filenewsession_xpm[] = {
"16 15 60 1",
" 	c None",
".	c #666666",
"+	c #FFFFFF",
"@	c #C5C9CD",
"#	c #FEFFFF",
"$	c #FEFEFE",
"%	c #FDFDFE",
"&	c #FCFCFD",
"*	c #FBFCFD",
"=	c #FAFBFC",
"-	c #F9FAFB",
";	c #F9FBFC",
">	c #F7F9FA",
",	c #F6F8FA",
"'	c #F5F6F9",
")	c #F4F6F8",
"!	c #F3F5F8",
"~	c #F2F4F7",
"{	c #F3F4F8",
"]	c #F2F4F6",
"^	c #F0F3F6",
"/	c #F0F3F5",
"(	c #EEF2F5",
"_	c #EEF1F5",
":	c #EDF0F4",
"<	c #ECEFF3",
"[	c #EBEEF2",
"}	c #ECEEF2",
"|	c #EAEFF3",
"1	c #EAEDF1",
"2	c #E8EDF1",
"3	c #E8ECF0",
"4	c #E6EBEF",
"5	c #E5EAEF",
"6	c #E4EAEF",
"7	c #E4E8EF",
"8	c #E5E9EF",
"9	c #E3E8EE",
"0	c #E2E8ED",
"a	c #E2E7ED",
"b	c #E0E6EC",
"c	c #E0E5EB",
"d	c #DFE4EB",
"e	c #DEE4EA",
"f	c #DDE3EA",
"g	c #DCE3E9",
"h	c #DBE2E9",
"i	c #DBE1E8",
"j	c #D9E0E8",
"k	c #D9E0E7",
"l	c #D8DFE6",
"m	c #D7DEE6",
"n	c #D6DDE5",
"o	c #D5DCE5",
"p	c #D4DBE4",
"q	c #D2DAE3",
"r	c #D0D9E2",
"s	c #D0D8E1",
"t	c #CFD8E0",
"u	c #C1C9D1",
"                ",
"  ..........    ",
"  .+++++++...   ",
"  .+++++++.@..  ",
"  .+++++++....  ",
"  .++++++++++.  ",
"  .+++#$%&*=-.  ",
"  .;;->,,')!~.  ",
"  .{{]^/(_:<[.  ",
"  .}}|1234567.  ",
"  .8890abcdef.  ",
"  .ffghijklmn.  ",
"  .nnoppqqrst.  ",
"  .uuuuuuuuuu.  ",
"  ............  "};
