/* XPM */
const static char * filesaveas_xpm[] = {
"16 15 95 2",
"  	c None",
". 	c #3A658A",
"+ 	c #77AD80",
"@ 	c #B8EF87",
"# 	c #B5EC87",
"$ 	c #9FD685",
"% 	c #174A78",
"& 	c #386586",
"* 	c #97ADC3",
"= 	c #EEEEFA",
"- 	c #EBECF8",
"; 	c #EAEBF7",
"> 	c #EAEBF6",
", 	c #E9EBF6",
"' 	c #CCD5E4",
") 	c #134A70",
"! 	c #396586",
"~ 	c #8BA5B9",
"{ 	c #DAE1E8",
"] 	c #D6DEE5",
"^ 	c #C9D3DD",
"/ 	c #CDD9DA",
"( 	c #D0DFD8",
"_ 	c #CFDDD7",
": 	c #B8CCCA",
"< 	c #1E586D",
"[ 	c #3A6687",
"} 	c #839EB3",
"| 	c #CBD4DF",
"1 	c #BDCAD7",
"2 	c #7A97AE",
"3 	c #BBC8D4",
"4 	c #B0C0CE",
"5 	c #3B6788",
"6 	c #6688A2",
"7 	c #B0BFCE",
"8 	c #AABACA",
"9 	c #D7DFE6",
"0 	c #D7DEE6",
"a 	c #D6DEE6",
"b 	c #D5DDE5",
"c 	c #BCCAD6",
"d 	c #144B71",
"e 	c #3F6A8A",
"f 	c #23577A",
"g 	c #275A7D",
"h 	c #2B5D7F",
"i 	c #C7D2DD",
"j 	c #C8D2DC",
"k 	c #C7D1DD",
"l 	c #C7D1DC",
"m 	c #C7D1DB",
"n 	c #AFBFCD",
"o 	c #154C72",
"p 	c #406B8A",
"q 	c #174E73",
"r 	c #7892AB",
"s 	c #537896",
"t 	c #B8C6D3",
"u 	c #B9C5D3",
"v 	c #B8C5D3",
"w 	c #B7C4D2",
"x 	c #A2B5C6",
"y 	c #164D72",
"z 	c #194F74",
"A 	c #7791AB",
"B 	c #1C5176",
"C 	c #B2C0CF",
"D 	c #B2BFCE",
"E 	c #B1BFCF",
"F 	c #B1BFCE",
"G 	c #B1BECE",
"H 	c #8BA3B7",
"I 	c #184E74",
"J 	c #184E73",
"K 	c #748FA9",
"L 	c #446E8E",
"M 	c #295B7E",
"N 	c #285A7D",
"O 	c #27597C",
"P 	c #24577A",
"Q 	c #205478",
"R 	c #547997",
"S 	c #5F809D",
"T 	c #869CB4",
"U 	c #839AB2",
"V 	c #7590AA",
"W 	c #1A5075",
"X 	c #184F74",
"Y 	c #316082",
"Z 	c #859BB3",
"` 	c #7F97B0",
" .	c #718DA8",
"..	c #527796",
"+.	c #8299B2",
"                                ",
"  . + @ # # # # # $ %           ",
"  & * = - ; ; > , ' )           ",
"  ! ~ { ] ^ / ( _ : <           ",
"  [ } | 1 . + @ # # # # # $ %   ",
"  [ 2 3 4 & * = - ; ; > , ' )   ",
"  5 6 7 8 ! ~ { 9 9 0 a b c d   ",
"  e f g h [ } | i j k l m n o   ",
"  p q r s [ 2 3 t u v v w x y   ",
"  5 z A B 5 6 7 C D E F G H I   ",
"    J K L e f g M N O O O P Q   ",
"          p q r R S T U U V W   ",
"          5 z A X Y Z ` `  .W   ",
"            J K L ..+.` `  .W   ",
"                                "};
