/* XPM */
const static char * filesave_xpm[] = {
"16 15 50 1",
" 	c None",
".	c #4D7492",
"+	c #215579",
"@	c #9AEA53",
"#	c #EFF2F5",
"$	c #EEF1F4",
"%	c #EEF1F5",
"&	c #EDF1F4",
"*	c #EDF0F4",
"=	c #E3E8EE",
"-	c #E2E8EE",
";	c #E2E7ED",
">	c #E2E8ED",
",	c #E1E7EC",
"'	c #E1E7ED",
")	c #D6DEE6",
"!	c #D5DDE5",
"~	c #D5DDE6",
"{	c #D4DCE5",
"]	c #CBD4DE",
"^	c #CAD4DF",
"/	c #C9D4DF",
"(	c #CAD4DE",
"_	c #CAD3DE",
":	c #C9D3DE",
"<	c #C9D3DD",
"[	c #BECAD7",
"}	c #BECAD6",
"|	c #BDCAD6",
"1	c #BEC9D6",
"2	c #BDC9D6",
"3	c #BCC8D5",
"4	c #BCC8D6",
"5	c #B1C0D0",
"6	c #B1C0CF",
"7	c #B1BFCE",
"8	c #B1BFCF",
"9	c #B0C0CF",
"0	c #AFBFCE",
"a	c #B0BFCE",
"b	c #87A0B5",
"c	c #A5B6C7",
"d	c #A5B6C8",
"e	c #A5B5C7",
"f	c #A4B5C7",
"g	c #A4B5C6",
"h	c #A4B4C6",
"i	c #8AA2B7",
"j	c #7F97B0",
"k	c #577B99",
"                ",
" .+@@@@@@@@@++  ",
" .+###$%%%&*++  ",
" .+==-;>;,,'++  ",
" .+)))))!~{!++  ",
" .+]^/(_:<<<++  ",
" .+[}|1|2234++  ",
" .+56678970a++  ",
" .+bcdcefghi++  ",
" .++++++++++++  ",
" .++jkkjjjjj++  ",
" .++j++jjjjj++  ",
"  ++j++jjjjj++  ",
"   +jkkjjjjj++  ",
"                "};
