/* XPM */
const static char * fileopensession_xpm[] = {
"16 15 36 1",
" 	c None",
".	c #376485",
"+	c #215579",
"@	c #DFF0D0",
"#	c #8DA0B9",
"$	c #467291",
"%	c #CAD2DC",
"&	c #CAE2AA",
"*	c #7F99B4",
"=	c #718BA7",
"-	c #65839D",
";	c #B6D791",
">	c #B4C4D3",
",	c #ADD668",
"'	c #4D7492",
")	c #BBC4D6",
"!	c #C2CBDB",
"~	c #9AEA53",
"{	c #FAFCFE",
"]	c #7F97B0",
"^	c #B3BFD1",
"/	c #F5F6F7",
"(	c #839CB5",
"_	c #A8B6CA",
":	c #EAEDF3",
"<	c #EEF1F3",
"[	c #9BACC2",
"}	c #DCE2EA",
"|	c #E4E9ED",
"1	c #597B9A",
"2	c #94A5BD",
"3	c #CAD6E1",
"4	c #D1D9E5",
"5	c #BECAD9",
"6	c #7A90AC",
"7	c #305F81",
"                ",
"     ....       ",
" ++++ .@@.      ",
" +###$%.&@.     ",
" +###*=-.;@+++  ",
" +######.;@+>+  ",
" +#+++...,@++++'",
" +#+)!.~~~~~@+{'",
" +]+^)!.~~~@+/>'",
" ++(_^)).~@+:<' ",
" ++#[_^)).+}|:' ",
" +1]2[_^))34}5' ",
" +-6#2[_^)!34'  ",
" 7+++++++++++'  ",
"                "};
