/* XPM */
const static char * filesaveok_xpm[] = {
"16 15 23 1",
" 	c None",
".	c #6F6F6F",
"+	c #4D4D4D",
"@	c #9E9E9E",
"#	c #F2F2F2",
"$	c #F1F1F1",
"%	c #F0F0F0",
"&	c #E8E8E8",
"*	c #E7E7E7",
"=	c #E6E6E6",
"-	c #76B876",
";	c #DEDEDE",
">	c #DDDDDD",
",	c #008100",
"'	c #D4D4D4",
")	c #D3D3D3",
"!	c #CACACA",
"~	c #C9C9C9",
"{	c #0D290D",
"]	c #BFBFBF",
"^	c #A0A0A0",
"/	c #979797",
"(	c #787878",
"                ",
" .+@@@@@@@@@++  ",
" .+###$$$$%%++  ",
" .+&&&***==--+  ",
" .+;;;;;>>-,-+  ",
" .+''''')-,,,+  ",
" .+!-~!~-,,,{+  ",
" .+-,-]-,,,{++  ",
" .+,,,-,,,{^++  ",
" .+{,,,,,{++++  ",
" .++{,,,{///++  ",
" .++/{,{////++  ",
"  ++/+{/////++  ",
"   +/((/////++  ",
"                "};
