/* XPM */
const static char * front_xpm[] = {
"16 16 65 1",
" 	c #C0C0C0",
".	c #ABB5C6",
"+	c #1C2636",
"@	c #1D2737",
"#	c #739ADA",
"$	c #7399D9",
"%	c #739AD9",
"&	c #1D2736",
"*	c #AEB8C7",
"=	c #1F2837",
"-	c #7A9FDC",
";	c #7A9EDC",
">	c #7A9FDB",
",	c #212937",
"'	c #82A5DD",
")	c #82A4DE",
"!	c #202937",
"~	c #B0B9C8",
"{	c #202938",
"]	c #81A4DD",
"^	c #232B38",
"/	c #8AABE0",
"(	c #8BABE0",
"_	c #B3BBC8",
":	c #252D39",
"<	c #95B3E3",
"[	c #95B2E3",
"}	c #94B2E3",
"|	c #282F3A",
"1	c #9FBAE5",
"2	c #9FB9E5",
"3	c #9FBAE6",
"4	c #9EB9E5",
"5	c #2B303A",
"6	c #A9C1E9",
"7	c #A9C1E8",
"8	c #2A313A",
"9	c #2B313A",
"0	c #A9C2E9",
"a	c #2A303A",
"b	c #2D323B",
"c	c #B4C9EB",
"d	c #B4CAEC",
"e	c #B4C9EC",
"f	c #30343C",
"g	c #BED1EE",
"h	c #BFD1EE",
"i	c #BFC4CC",
"j	c #32363C",
"k	c #C9D8F1",
"l	c #C8D8F2",
"m	c #C5C8CD",
"n	c #34383D",
"o	c #D1DFF4",
"p	c #C4C8CD",
"q	c #36393D",
"r	c #D9E5F6",
"s	c #D9E4F6",
"t	c #D9E4F5",
"u	c #DAE5F6",
"v	c #DAE4F6",
"w	c #36393E",
"x	c #C8CACE",
"y	c #383B3E",
"z	c #383A3E",
"                ",
"  .++++++++++.  ",
"  @#$%$$%%#%%&  ",
"  *==-;=====>=  ",
"    ,')! ~,{],  ",
"    ^/(^ ^/^^_  ",
"    :<[:::}:    ",
"    |122343|    ",
"    5678990a    ",
"    bcdb beb    ",
"    fghf ifi    ",
"    jklj        ",
"  mnnoonnp      ",
"  qrsstuvw      ",
"  xyyyzzzx      ",
"                "};
