/* XPM */
const static char * Label_xpm[] = {
"16 16 34 1",
" 	c None",
".	c #0E131B",
"+	c #749ADA",
"@	c #7B9FDC",
"#	c #7A9FDB",
"$	c #7BA0DC",
"%	c #84A5DE",
"&	c #84A6DF",
"*	c #84A6DE",
"=	c #8EACE1",
"-	c #8EADE1",
";	c #96B3E3",
">	c #97B3E4",
",	c #9FBAE6",
"'	c #A9C1E8",
")	c #A9C1E9",
"!	c #B2C7EA",
"~	c #B3C8EB",
"{	c #BACEED",
"]	c #BBCEED",
"^	c #BCCEEE",
"/	c #BCCFED",
"(	c #C4D4EF",
"_	c #C5D4F0",
":	c #C5D5F0",
"<	c #C5D6F0",
"[	c #CDDBF2",
"}	c #CEDCF2",
"|	c #CFDCF2",
"1	c #CEDDF3",
"2	c #D7E1F4",
"3	c #D7E2F4",
"4	c #D7E3F4",
"5	c #D8E3F5",
"                ",
"       ...      ",
"      .+++.     ",
"     .@#@@$.    ",
"     .%&.&*.    ",
"     .=. .-.    ",
"    .;>. .>>.   ",
"    .,,. .,,.   ",
"    .''...').   ",
"   .!!!!!!!!~.  ",
"   .{].....^/.  ",
"   .(_.   .:<.  ",
"  .[}.     .|1. ",
"  .23.     .45. ",
"   ..       ..  ",
"                "};
