/* XPM */
const static char * line_xpm[] = {
"12 12 4 1",
" 	c None",
".	c #22547A",
"+	c #7BA0DC",
"@	c #DFE9F8",
"           .",
"          .+",
"         .+@",
"        .+@ ",
"       .+@  ",
"      .+@   ",
"     .+@    ",
"    .+@     ",
"   .+@      ",
"  .+@       ",
" .+@        ",
".+@         "};
