/* XPM */
const static char * Location_old_xpm[] = {
"16 16 6 1",
" 	c None",
".	c #22547A",
"+	c #7BA0DC",
"@	c #A00A00",
"#	c #DA0F00",
"$	c #CAD6E1",
"                ",
"  ...........   ",
" .++.++.++.@@.  ",
" .++.++.++.@#.$ ",
" .............$ ",
" .@@.++.@@.++.$ ",
" .@#.++.@#.++.$ ",
" .............$ ",
" .++.++.++.@@.$ ",
" .++.++.++.@#.$ ",
" .............$ ",
" .++.@@.++.++.$ ",
" .++.@#.++.++.$ ",
"  ...........$  ",
"   $$$$$$$$$$   ",
"                "};
