/* XPM */
const static char * Location_xpm[] = {
"16 16 7 1",
" 	c None",
".	c #22547A",
"+	c #A00A00",
"@	c #DA0F00",
"#	c #CAD6E1",
"$	c #7A3833",
"%	c #FF756B",
"                ",
"  ...........   ",
" .         ++.  ",
" .         +@.# ",
" .         $@.# ",
" .++$        .# ",
" .+@@  ++$   .# ",
" .$@%  +@@   .# ",
" .     $@% ++.# ",
" .         +@.# ",
" .         $@.# ",
" .   ++$     .# ",
" .   +@@     .# ",
"  ...........#  ",
"   ##########   ",
"                "};
