/* XPM */
const static char * manual_xpm[] = {
"16 15 5 1",
" 	c None",
".	c #521A16",
"+	c #FFFFFF",
"@	c #7A3833",
"#	c #662925",
"    .........   ",
"   .+++++++++.  ",
"  .........++.  ",
"  .@@@@@@@#.+.  ",
"  .@@@@@@@@.+.  ",
"  .@@@@@@@@.+.  ",
"  .@@@@@@@@.+.  ",
"  .@@@@@@@@.+.  ",
"  .@@@@@@@@.+.  ",
"  .@@@@@@@@.+.  ",
"  .@@@@@@@@.+.  ",
"  .@@@@@@@@.+.  ",
"  .@@@@@@@@.+   ",
"  ..........    ",
"                "};
