/* XPM */
const static char * phylogram_xpm[] = {
"16 16 3 1",
" 	c None",
".	c #22547A",
"+	c #CAD6E1",
"                ",
"        .....   ",
"        .++++   ",
"  .......       ",
"  .+++++.       ",
"  .     ......  ",
"  .     ++++++  ",
"  .             ",
"  .   ......    ",
"  .   .+++++    ",
"  .....         ",
"  ++++.         ",
"      ....      ",
"      ++++      ",
"                ",
"                "};
