/* XPM */
const static char * polyline_xpm[] = {
"13 13 4 1",
" 	c None",
".	c #22547A",
"+	c #7BA0DC",
"@	c #DFE9F8",
"        .    ",
"       .+.   ",
"      .+@+.  ",
"     .+@ @+. ",
"    .+@   @+.",
"   .+@   @+. ",
"  .+@   @+.  ",
" .+@         ",
"  .+@        ",
"   .+@       ",
"  .+@        ",
" .+@         ",
".+@          "};
