/* XPM */
const static char * Reset_xpm[] = {
"16 16 6 1",
" 	c None",
".	c #000000",
"+	c #8EADE1",
"@	c #749AD9",
"#	c #BACEED",
"$	c #CFDDF3",
"          .     ",
"         .+.    ",
"         .+.    ",
"        .@@+.   ",
"        .@@+.   ",
"       .@@@@+.  ",
"       .@@@@+.  ",
"     ..@@@@@@+. ",
"   ..#.@@@@@@+. ",
" ..##.......... ",
".##..##..##..$$.",
" ..##..##..$$.. ",
"   ..##..$$..   ",
"     ..#$..     ",
"       ..       ",
"                "};
