/* XPM */
const static char * SampleData_xpm[] = {
"16 16 78 1",
" 	c None",
".	c #5A8FE6",
"+	c #678AD9",
"@	c #4D8BE7",
"#	c #538FE9",
"$	c #5D92E9",
"%	c #FC9142",
"&	c #4E8EE6",
"*	c #5D8FE1",
"=	c #F59763",
"-	c #FC7A06",
";	c #5A90EA",
">	c #FC882A",
",	c #FC8524",
"'	c #D87102",
")	c #4971B9",
"!	c #4A87E2",
"~	c #7582C5",
"{	c #FC8A2E",
"]	c #DF7401",
"^	c #5A69A2",
"/	c #4174C7",
"(	c #508BE4",
"_	c #6C7EC0",
":	c #FB7803",
"<	c #CD6715",
"[	c #3078D2",
"}	c #538DE5",
"|	c #3175C9",
"1	c #2E6EBC",
"2	c #2E70BA",
"3	c #2E6EB6",
"4	c #4E8BE6",
"5	c #377BD7",
"6	c #2E6FC0",
"7	c #396EB7",
"8	c #416CAD",
"9	c #2E75CC",
"0	c #2D71BD",
"a	c #2D65A5",
"b	c #306BB4",
"c	c #356EBB",
"d	c #2D74CB",
"e	c #4B87E1",
"f	c #3E7FD8",
"g	c #2D74CD",
"h	c #2F74D1",
"i	c #3D75C9",
"j	c #2D70BB",
"k	c #2F69B1",
"l	c #F77C03",
"m	c #4D8AE5",
"n	c #4885E0",
"o	c #2F6AB3",
"p	c #D16A0F",
"q	c #FC9440",
"r	c #5489E0",
"s	c #2E6CB8",
"t	c #E97401",
"u	c #FD8215",
"v	c #EC7E3C",
"w	c #558FE5",
"x	c #3767AF",
"y	c #D87000",
"z	c #FC892C",
"A	c #FB9347",
"B	c #4684E2",
"C	c #4C87E0",
"D	c #2F74C9",
"E	c #FC7C0A",
"F	c #C88882",
"G	c #4E88DE",
"H	c #FD8113",
"I	c #FA8F48",
"J	c #457DD1",
"K	c #4583DF",
"L	c #4978C7",
"M	c #377CDB",
"           .+@  ",
"         #$ %   ",
"        &*=  -  ",
"        ; >,  ')",
"       !~{  ] ^/",
"       (_,:  <[ ",
"       }  ]  |  ",
"    123456789   ",
"  0abcdefghi    ",
" jk  l mn       ",
" op   qr        ",
"s  tu vw        ",
"xy  zABC        ",
"D E  FG         ",
"  HIJK          ",
"   LM           "};
