/* XPM */
const static char * SampleDataDesaturated_xpm[] = {
"16 16 45 1",
" 	c None",
".	c #8A8A8A",
"+	c #888888",
"@	c #848484",
"#	c #898989",
"$	c #8D8D8D",
"%	c #A2A2A2",
"&	c #878787",
"*	c #A7A7A7",
"=	c #8B8B8B",
"-	c #9A9A9A",
";	c #979797",
">	c #7F7F7F",
",	c #6E6E6E",
"'	c #818181",
")	c #9C9C9C",
"!	c #828282",
"~	c #6A6A6A",
"{	c #6F6F6F",
"]	c #858585",
"^	c #777777",
"/	c #6D6D6D",
"(	c #666666",
"_	c #676767",
":	c #737373",
"<	c #686868",
"[	c #6C6C6C",
"}	c #5E5E5E",
"|	c #646464",
"1	c #6B6B6B",
"2	c #787878",
"3	c #626262",
"4	c #636363",
"5	c #797979",
"6	c #A4A4A4",
"7	c #949494",
"8	c #919191",
"9	c #7E7E7E",
"0	c #9B9B9B",
"a	c #8F8F8F",
"b	c #959595",
"c	c #939393",
"d	c #A1A1A1",
"e	c #7C7C7C",
"f	c #747474",
"           .+@  ",
"         #$ %   ",
"        &.*  $  ",
"        = -;  >,",
"       '@)  ! ~{",
"       ]>;=  ^{ ",
"       &  !  /  ",
"    (_(]:_<<[   ",
"  <}|_1'21[{    ",
" _3  $ @>       ",
" 45   6@        ",
"|  ]7 8#        ",
"39  069'        ",
"1 a  b!         ",
"  cd^e          ",
"   ff           "};
