/* XPM */
const static char * top_xpm[] = {
"16 16 46 1",
" 	c None",
".	c #0E131B",
"+	c #749AD9",
"@	c #749BD9",
"#	c #739ADA",
"$	c #739AD9",
"%	c #749BDA",
"&	c #749ADA",
"*	c #0F131B",
"=	c #0F141C",
"-	c #7BA0DC",
";	c #7AA0DC",
">	c #7B9FDB",
",	c #7A9FDB",
"'	c #0F141B",
")	c #10151C",
"!	c #84A6DE",
"~	c #11151C",
"{	c #12161C",
"]	c #8EADE1",
"^	c #13171D",
"/	c #99B5E3",
"(	c #99B6E4",
"_	c #15181D",
":	c #A3BEE7",
"<	c #A3BDE7",
"[	c #16191D",
"}	c #B0C5EA",
"|	c #AFC6EA",
"1	c #171A1E",
"2	c #BACEED",
"3	c #191B1E",
"4	c #C5D5F0",
"5	c #C5D6F0",
"6	c #1A1C1E",
"7	c #CFDEF3",
"8	c #CFDDF3",
"9	c #1B1D1F",
"0	c #D8E3F5",
"a	c #D8E4F5",
"b	c #1C1D1F",
"c	c #E0E9F8",
"d	c #E0E9F7",
"e	c #DFE9F8",
"f	c #E0E8F7",
"g	c #1D1E1F",
"                ",
"  ............  ",
" .+@#$%&&#&##+* ",
" =-;===->===,>' ",
" )!~  ~!!~  ~!~ ",
"  {   {]]{   {  ",
"      ^/(^      ",
"      _:<_      ",
"      [}|[      ",
"      1221      ",
"      3453      ",
"      6786      ",
"     990a99     ",
"    bcdedfeb    ",
"     gggggg     ",
"                "};
