/* XPM */
const static char * unchecked_xpm[] = {
"16 16 2 1",
" 	c None",
".	c #808080",
"                ",
"                ",
"   ..........   ",
"  .          .  ",
"  .          .  ",
"  .          .  ",
"  .          .  ",
"  .          .  ",
"  .          .  ",
"  .          .  ",
"  .          .  ",
"  .          .  ",
"  .          .  ",
"   ..........   ",
"                ",
"                "};
