/* XPM */
static char * circle_fast_xpm[] = {
"16 16 2 1",
" 	c None",
".	c #606060",
"                ",
"                ",
"      ....      ",
"    ........    ",
"   ..........   ",
"   ..........   ",
"  ............  ",
"  ............  ",
"  ............  ",
"  ............  ",
"   ..........   ",
"   ..........   ",
"    ........    ",
"      ....      ",
"                ",
"                "};
